<svg width="20" height="20" viewBox="0 0 20 20" fill="none" xmlns="http://www.w3.org/2000/svg">
<g clip-path="url(#clip0_5_2228)">
<path d="M2.11765 20C1.52941 20 1.05882 19.7647 0.588235 19.4118C0.235294 18.9412 0 18.4706 0 17.8824V2.11765C0 1.52941 0.235294 1.05882 0.588235 0.588235C1.05882 0.235294 1.52941 0 2.11765 0H9.17647C9.41177 0 9.64706 0.117647 9.76471 0.235294C9.88235 0.352941 10 0.588235 10 0.823529C10 1.05882 9.88235 1.29412 9.76471 1.52941C9.64706 1.64706 9.41177 1.76471 9.17647 1.76471H2.11765C2 1.76471 2 1.76471 1.88235 1.88235C1.76471 2 1.76471 2 1.76471 2.11765V17.8824C1.76471 18 1.76471 18 1.88235 18.1176C2 18.2353 2 18.2353 2.11765 18.2353H9.17647C9.41177 18.2353 9.64706 18.3529 9.76471 18.4706C9.88235 18.5882 10 18.8235 10 19.0588C10 19.2941 9.88235 19.5294 9.76471 19.6471C9.64706 19.8824 9.41177 20 9.17647 20H2.11765Z" fill="#79859D"/>
<path d="M16.5882 10.9412H7.41176C7.17647 10.9412 7.05882 10.8235 6.82353 10.5882C6.70588 10.4706 6.58823 10.2353 6.58823 9.99998C6.58823 9.76468 6.70588 9.52939 6.82353 9.41174C7.05882 9.17645 7.17647 9.17645 7.41176 9.17645H16.5882L14.3529 6.94116C14.2353 6.70586 14.1176 6.47057 14.1176 6.23527C14.1176 5.99998 14.2353 5.76468 14.3529 5.64704C14.4706 5.41174 14.7059 5.41174 14.9412 5.41174C15.1765 5.41174 15.4118 5.52939 15.5294 5.64704L19.1765 9.2941C19.4118 9.52939 19.5294 9.76468 19.5294 9.99998C19.5294 10.2353 19.4118 10.5882 19.1765 10.7059L15.5294 14.3529C15.4118 14.4706 15.1765 14.5882 14.9412 14.5882C14.7059 14.5882 14.4706 14.4706 14.3529 14.3529C14.1176 14.2353 14.1176 14 14.1176 13.7647C14.1176 13.5294 14.2353 13.2941 14.3529 13.1764L16.5882 10.9412Z" fill="#3159BA"/>
</g>
<defs>
<clipPath id="clip0_5_2228">
<rect width="19.5294" height="20" fill="white"/>
</clipPath>
</defs>
</svg>
