<svg width="21" height="24" viewBox="0 0 21 24" fill="none" xmlns="http://www.w3.org/2000/svg">
<path d="M1.70588 20.5C1.23529 20.5 0.823529 20.3235 0.470588 20.0294C0.176471 19.6765 0 19.2647 0 18.7941V2.20588C0 1.73529 0.176471 1.32353 0.470588 0.970588C0.823529 0.676471 1.23529 0.5 1.70588 0.5H14.5294L20 6.02941V18.7941C20 19.2647 19.8235 19.6765 19.5294 19.9706C19.2353 20.2647 18.8235 20.4412 18.3529 20.4412L1.70588 20.5ZM1.70588 19.2059H18.2941C18.4118 19.2059 18.5294 19.1471 18.5882 19.0882C18.6471 19.0294 18.7059 18.9118 18.7059 18.7941V6.79412H13.7647V1.79412H1.70588C1.58824 1.79412 1.47059 1.85294 1.41176 1.91176C1.35294 1.97059 1.29412 2.08824 1.29412 2.20588V18.7941C1.29412 18.9118 1.35294 19.0294 1.41176 19.0882C1.47059 19.1471 1.58824 19.1471 1.70588 19.2059ZM4.35294 15.5588H15.5882V14.2647H4.35294V15.5588ZM4.35294 6.73529H10V5.44118H4.35294V6.73529ZM4.35294 11.1471H15.5882V9.79412H4.35294V11.1471Z" fill="#3159BA"/>
<rect x="10" y="11.5" width="10" height="12" fill="#E8EFFF"/>
<path d="M20.098 13V22.95H18.0479L14.0501 16.2802V22.95H12V13H14.0501L18.0547 19.6766V13H20.098Z" fill="#3159BA"/>
</svg>
